<svg width="50" height="50" viewBox="0 0 50 50" fill="none" xmlns="http://www.w3.org/2000/svg">
<circle cx="25" cy="25" r="25" fill="#E25151"/>
<path d="M19.8804 35.6624C19.8804 35.6624 18.3907 36.5293 20.942 36.8218C24.0332 37.1749 25.6129 37.1243 29.0185 36.4805C29.0185 36.4805 29.9157 37.0415 31.1663 37.5277C23.5292 40.7996 13.8826 37.338 19.8804 35.6624ZM18.9467 31.3921C18.9467 31.3921 17.2754 32.6293 19.8288 32.8937C23.131 33.2346 25.7382 33.2624 30.252 32.3937C30.252 32.3937 30.8748 33.0265 31.8557 33.3721C22.6238 36.0721 12.3413 33.5846 18.9467 31.3921Z" fill="white"/>
<path d="M26.813 24.1473C28.6959 26.3145 26.3193 28.2629 26.3193 28.2629C26.3193 28.2629 31.0971 25.797 28.9034 22.7076C26.8537 19.8279 25.2824 18.3976 33.7893 13.4639C33.7893 13.4642 20.4359 16.7982 26.813 24.1473Z" fill="white"/>
<path d="M36.9135 38.8217C36.9135 38.8217 38.0163 39.7311 35.6985 40.4339C31.2916 41.7689 17.3529 42.1714 13.4816 40.4873C12.0907 39.8817 14.7001 39.042 15.521 38.8648C16.3769 38.6795 16.8657 38.7132 16.8657 38.7132C15.3179 37.6236 6.86163 40.8539 12.571 41.7804C28.1401 44.3042 40.9513 40.6439 36.9135 38.8217ZM20.5976 26.967C20.5976 26.967 13.5082 28.6511 18.0873 29.2632C20.021 29.522 23.8741 29.4626 27.4657 29.1614C30.4001 28.9148 33.3448 28.3882 33.3448 28.3882C33.3448 28.3882 32.311 28.8317 31.5623 29.3423C24.3616 31.2364 10.4548 30.3542 14.4588 28.4179C17.8438 26.7807 20.5976 26.967 20.5976 26.967ZM33.3154 34.0754C40.6344 30.2732 37.2501 26.6192 34.8879 27.1114C34.3104 27.2317 34.0513 27.3364 34.0513 27.3364C34.0513 27.3364 34.2663 26.9992 34.6763 26.8542C39.3491 25.212 42.9423 31.6989 33.1691 34.2682C33.1691 34.2676 33.2813 34.1661 33.3154 34.0754Z" fill="white"/>
<path d="M28.9035 5.49609C28.9035 5.49609 32.9561 9.55109 25.0589 15.7845C18.7257 20.7864 23.6148 23.6377 25.0567 26.8967C21.3595 23.5614 18.6476 20.6248 20.4667 17.892C23.1379 13.8814 30.5382 11.9361 28.9035 5.49609Z" fill="white"/>
<path d="M21.3169 44.3814C28.3407 44.8304 39.1294 44.1314 39.3847 40.8076C39.3847 40.8076 38.8938 42.0676 33.5794 43.0673C27.5838 44.1961 20.1876 44.0645 15.8022 43.3404C15.8022 43.3407 16.7007 44.0845 21.3169 44.3814Z" fill="white"/>
</svg>
