<svg width="1920" height="800" viewBox="0 0 1920 800" fill="none" xmlns="http://www.w3.org/2000/svg">
<g clip-path="url(#clip0_73_100)">
<path d="M1920 0H0V800H1920V0Z" fill="#181B19"/>
<path d="M1445.5 -412L2084 -82.2222L1445.5 247.556L807 -82.2222L1445.5 -412Z" stroke="#E8B5CE" stroke-opacity="0.5" stroke-width="2"/>
<path d="M-53 -127L304 419.322L-53 965.644L-410 419.322L-53 -127Z" stroke="#E8B5CE" stroke-opacity="0.5" stroke-width="2"/>
<path d="M83.5 -59L271 54.5L83.5 168L-104 54.5L83.5 -59Z" stroke="#E8B5CE" stroke-opacity="0.5" stroke-width="2"/>
<path d="M1989.5 -107L2311 429.5L1989.5 966L1668 429.5L1989.5 -107Z" stroke="#E8B5CE" stroke-opacity="0.5" stroke-width="2"/>
<path d="M1772.91 -239.202L2335.48 21.9375L2206.82 628.673L1644.25 367.534L1772.91 -239.202Z" stroke="#E8B5CE" stroke-opacity="0.5" stroke-width="2"/>
</g>
<defs>
<clipPath id="clip0_73_100">
<rect width="1920" height="800" fill="white"/>
</clipPath>
</defs>
</svg>
