<svg width="1920" height="800" viewBox="0 0 1920 800" fill="none" xmlns="http://www.w3.org/2000/svg">
<g clip-path="url(#clip0_95_95)">
<path d="M1920 0H0V800H1920V0Z" fill="#181B19"/>
<path d="M722.5 -463L1361 -73L722.5 317L84 -73L722.5 -463Z" stroke="#E8B5CE" stroke-opacity="0.5" stroke-width="2"/>
<path d="M83.5 -59L271 54.5L83.5 168L-104 54.5L83.5 -59Z" stroke="#E8B5CE" stroke-opacity="0.5" stroke-width="2"/>
<path d="M1899.08 170.952L2507.38 432.784L2351.84 1076.52L1743.53 814.687L1899.08 170.952Z" stroke="#E8B5CE" stroke-opacity="0.5" stroke-width="2"/>
<path d="M2048.5 327L2370 863.5L2048.5 1400L1727 863.5L2048.5 327Z" stroke="#E8B5CE" stroke-opacity="0.5" stroke-width="2"/>
<path d="M-33 307L324 853.322L-33 1399.64L-390 853.322L-33 307Z" stroke="#E8B5CE" stroke-opacity="0.5" stroke-width="2"/>
<path d="M324 675L1425 1221.32L324 1767.64L-777 1221.32L324 675Z" stroke="#E8B5CE" stroke-opacity="0.5" stroke-width="2"/>
<path d="M503.5 -585L1142 -195L503.5 195L-135 -195L503.5 -585Z" stroke="#E8B5CE" stroke-opacity="0.5" stroke-width="2"/>
<path d="M2091.92 -696.048L2700.23 -434.216L2544.68 209.52L1936.38 -52.3129L2091.92 -696.048Z" stroke="#E8B5CE" stroke-opacity="0.5" stroke-width="2"/>
</g>
<defs>
<clipPath id="clip0_95_95">
<rect width="1920" height="800" fill="white"/>
</clipPath>
</defs>
</svg>
