<svg width="195" height="90" viewBox="0 0 195 90" fill="none" xmlns="http://www.w3.org/2000/svg">
<line x1="15" y1="81.75" y2="81.75" stroke="#EAEBEA" stroke-width="1.5"/>
<line x1="27.75" y1="1.5" x2="27.75" y2="7.5" stroke="#EAEBEA" stroke-width="1.5"/>
<path d="M28.5 0.75L0 0.75" stroke="#EAEBEA" stroke-width="1.5"/>
<line x1="0.75" x2="0.75" y2="81" stroke="#EAEBEA" stroke-width="1.5"/>
<line x1="45" y1="8.25" x2="13.5" y2="8.25" stroke="#EAEBEA" stroke-width="1.5"/>
<line x1="14.25" y1="9" x2="14.25" y2="90" stroke="#EAEBEA" stroke-width="1.5"/>
<line x1="15" y1="89.25" x2="45" y2="89.25" stroke="#EAEBEA" stroke-width="1.5"/>
<line x1="44.25" y1="22.5" x2="44.25" y2="7.5" stroke="#EAEBEA" stroke-width="1.5"/>
<line x1="44.25" y1="90" x2="44.25" y2="75" stroke="#EAEBEA" stroke-width="1.5"/>
<path d="M50.7773 55.7852V20.3125H61.2891V55.7852C61.2891 59.207 60.5391 62.1484 59.0391 64.6094C57.5391 67.0469 55.4883 68.9219 52.8867 70.2344C50.3086 71.5469 47.4023 72.2031 44.168 72.2031C40.8164 72.2031 37.8516 71.6406 35.2734 70.5156C32.6953 69.3906 30.668 67.668 29.1914 65.3477C27.7148 63.0039 26.9766 60.0391 26.9766 56.4531H37.5586C37.5586 58.3281 37.8164 59.8164 38.332 60.918C38.8711 62.0195 39.6328 62.8047 40.6172 63.2734C41.6016 63.7422 42.7852 63.9766 44.168 63.9766C45.5039 63.9766 46.6641 63.6602 47.6484 63.0273C48.6328 62.3945 49.3945 61.4688 49.9336 60.25C50.4961 59.0312 50.7773 57.543 50.7773 55.7852ZM87.1641 72.2031C84.2109 72.2031 81.5625 71.7344 79.2188 70.7969C76.875 69.8359 74.8828 68.5117 73.2422 66.8242C71.625 65.1367 70.3828 63.1797 69.5156 60.9531C68.6484 58.7031 68.2148 56.3125 68.2148 53.7812V52.375C68.2148 49.4922 68.625 46.8555 69.4453 44.4648C70.2656 42.0742 71.4375 40 72.9609 38.2422C74.5078 36.4844 76.3828 35.1367 78.5859 34.1992C80.7891 33.2383 83.2734 32.7578 86.0391 32.7578C88.7344 32.7578 91.125 33.2031 93.2109 34.0938C95.2969 34.9844 97.043 36.25 98.4492 37.8906C99.8789 39.5312 100.957 41.5 101.684 43.7969C102.41 46.0703 102.773 48.6016 102.773 51.3906V55.6094H72.5391V48.8594H92.8242V48.0859C92.8242 46.6797 92.5664 45.4258 92.0508 44.3242C91.5586 43.1992 90.8086 42.3086 89.8008 41.6523C88.793 40.9961 87.5039 40.668 85.9336 40.668C84.5977 40.668 83.4492 40.9609 82.4883 41.5469C81.5273 42.1328 80.7422 42.9531 80.1328 44.0078C79.5469 45.0625 79.1016 46.3047 78.7969 47.7344C78.5156 49.1406 78.375 50.6875 78.375 52.375V53.7812C78.375 55.3047 78.5859 56.7109 79.0078 58C79.4531 59.2891 80.0742 60.4023 80.8711 61.3398C81.6914 62.2773 82.6758 63.0039 83.8242 63.5195C84.9961 64.0352 86.3203 64.293 87.7969 64.293C89.625 64.293 91.3242 63.9414 92.8945 63.2383C94.4883 62.5117 95.8594 61.4219 97.0078 59.9688L101.93 65.3125C101.133 66.4609 100.043 67.5625 98.6602 68.6172C97.3008 69.6719 95.6602 70.5391 93.7383 71.2188C91.8164 71.875 89.625 72.2031 87.1641 72.2031ZM118.664 41.7578V71.5H108.539V33.4609H118.066L118.664 41.7578ZM130.125 33.2148L129.949 42.6016C129.457 42.5312 128.859 42.4727 128.156 42.4258C127.477 42.3555 126.855 42.3203 126.293 42.3203C124.863 42.3203 123.621 42.5078 122.566 42.8828C121.535 43.2344 120.668 43.7617 119.965 44.4648C119.285 45.168 118.77 46.0234 118.418 47.0312C118.09 48.0391 117.902 49.1875 117.855 50.4766L115.816 49.8438C115.816 47.3828 116.062 45.1211 116.555 43.0586C117.047 40.9727 117.762 39.1562 118.699 37.6094C119.66 36.0625 120.832 34.8672 122.215 34.0234C123.598 33.1797 125.18 32.7578 126.961 32.7578C127.523 32.7578 128.098 32.8047 128.684 32.8984C129.27 32.9688 129.75 33.0742 130.125 33.2148ZM145.031 41.7578V71.5H134.906V33.4609H144.434L145.031 41.7578ZM156.492 33.2148L156.316 42.6016C155.824 42.5312 155.227 42.4727 154.523 42.4258C153.844 42.3555 153.223 42.3203 152.66 42.3203C151.23 42.3203 149.988 42.5078 148.934 42.8828C147.902 43.2344 147.035 43.7617 146.332 44.4648C145.652 45.168 145.137 46.0234 144.785 47.0312C144.457 48.0391 144.27 49.1875 144.223 50.4766L142.184 49.8438C142.184 47.3828 142.43 45.1211 142.922 43.0586C143.414 40.9727 144.129 39.1562 145.066 37.6094C146.027 36.0625 147.199 34.8672 148.582 34.0234C149.965 33.1797 151.547 32.7578 153.328 32.7578C153.891 32.7578 154.465 32.8047 155.051 32.8984C155.637 32.9688 156.117 33.0742 156.492 33.2148ZM173.191 67.2109L183.281 33.4609H194.145L178.852 77.2305C178.523 78.1914 178.078 79.2227 177.516 80.3242C176.977 81.4258 176.238 82.4688 175.301 83.4531C174.387 84.4609 173.227 85.2812 171.82 85.9141C170.438 86.5469 168.738 86.8633 166.723 86.8633C165.762 86.8633 164.977 86.8047 164.367 86.6875C163.758 86.5703 163.031 86.4062 162.188 86.1953V78.7773C162.445 78.7773 162.715 78.7773 162.996 78.7773C163.277 78.8008 163.547 78.8125 163.805 78.8125C165.141 78.8125 166.23 78.6602 167.074 78.3555C167.918 78.0508 168.598 77.582 169.113 76.9492C169.629 76.3398 170.039 75.543 170.344 74.5586L173.191 67.2109ZM168.973 33.4609L177.234 61.0234L178.676 71.7461L171.785 72.4844L158.109 33.4609H168.973Z" fill="#EAEBEA"/>
</svg>
